<svg xmlns="http://www.w3.org/2000/svg" style="display: none;">


<symbol id="crown" viewBox="0 0 26 20">
<path d="M24.8811 17.4332H1.13815C0.838036 17.4306 0.549083 17.5618 0.333766 17.7982C0.227351 17.9212 0.143743 18.067 0.087824 18.227C0.0298626 18.382 0 18.5484 0 18.7166C0 18.8848 0.0298626 19.0512 0.087824 19.2062C0.145525 19.3652 0.22893 19.5106 0.333766 19.635C0.442854 19.7532 0.572167 19.845 0.713755 19.9048C0.850794 19.9682 0.99749 20.0006 1.14554 20H24.8913C25.186 19.9962 25.4676 19.8614 25.6752 19.6246C25.8826 19.3878 25.9993 19.0678 26 18.7344C26.0006 18.4008 25.885 18.0806 25.6783 17.8426C25.4716 17.6048 25.1907 17.4686 24.8957 17.4636L24.8811 17.4332ZM19.9628 0C20.3066 0 20.5853 0.310639 20.5853 0.693859L20.5851 13.1322L20.5857 13.1124V10.0404L24.9321 5.1216C25.0491 4.9892 25.2089 4.9146 25.3756 4.9146C25.7194 4.9146 25.9981 5.2252 25.9981 5.6084V14.8978C26 15.1486 25.9356 15.3942 25.813 15.603C25.6904 15.8118 25.5153 15.9744 25.3101 16.0694C25.1739 16.1318 25.0282 16.1638 24.8811 16.1634H20.5851L14.6618 16.1638L14.711 16.1642H6.55621C6.54968 16.1642 6.54312 16.1642 6.53659 16.164L1.13971 16.1638C0.99346 16.1632 0.848714 16.1304 0.713477 16.0674C0.508412 15.9724 0.333246 15.81 0.210619 15.6012C0.0879914 15.3922 0.0235487 15.1466 0.0255173 14.896V5.6034C0.0255173 5.418 0.0921699 5.2402 0.210581 5.1098C0.455186 4.8406 0.849308 4.8432 1.09087 5.116L5.43734 10.0218L5.43747 0.71388C5.43747 0.54146 5.49504 0.375721 5.59823 0.248541L5.62285 0.219879C5.86761 -0.0492008 6.26173 -0.0461602 6.50312 0.22666L13.0071 7.5774L19.5193 0.20698C19.628 0.0840197 19.7736 0.0109406 19.9271 0.00114059L19.9628 0Z" />

</symbol>

<symbol  id="default" viewBox="0 0 16 16">
  <path fill-rule="evenodd" clip-rule="evenodd" d="M8 16C12.4183 16 16 12.4183 16 8C16 3.58172 12.4183 0 8 0C3.58172 0 0 3.58172 0 8C0 12.4183 3.58172 16 8 16ZM3.62113 10.3786H12.3877L12.3932 10.3883C12.5021 10.3899 12.6058 10.4335 12.6821 10.5096C12.7584 10.5857 12.8011 10.6882 12.8009 10.795C12.8006 10.9016 12.7576 11.004 12.681 11.0798C12.6043 11.1556 12.5003 11.1987 12.3915 11.1999H3.62386C3.5692 11.2001 3.51503 11.1898 3.46443 11.1695C3.41215 11.1503 3.36441 11.121 3.32413 11.0831C3.28542 11.0433 3.25463 10.9968 3.23332 10.9459C3.21192 10.8963 3.20089 10.8431 3.20089 10.7893C3.20089 10.7354 3.21192 10.6822 3.23332 10.6326C3.25397 10.5814 3.28484 10.5347 3.32413 10.4954C3.40363 10.4197 3.51032 10.3777 3.62113 10.3786ZM10.8016 5.02198C10.8016 4.89935 10.6987 4.79994 10.5718 4.79994L10.5586 4.80031C10.5019 4.80345 10.4481 4.82683 10.408 4.86618L8.0035 7.22471L5.60205 4.87248C5.51292 4.78517 5.36739 4.7842 5.27702 4.87031L5.26793 4.87948C5.22983 4.92018 5.20857 4.97321 5.20857 5.02839L5.20853 8.00692L3.60367 6.43706C3.51448 6.34977 3.36896 6.34894 3.27865 6.43508C3.23492 6.47681 3.21031 6.5337 3.21031 6.59303V9.56666C3.20959 9.64685 3.23338 9.72545 3.27866 9.79233C3.32394 9.85914 3.38861 9.91111 3.46433 9.94151C3.51426 9.96167 3.56771 9.97217 3.62171 9.97236L5.6144 9.97242L5.62165 9.97249H8.63264L8.61447 9.97236L10.8016 9.97223H12.3877C12.4421 9.97236 12.4959 9.96212 12.5461 9.94215C12.6219 9.91175 12.6866 9.85972 12.7318 9.7929C12.7771 9.72609 12.8009 9.64749 12.8002 9.56724V6.59463C12.8002 6.47201 12.6973 6.37262 12.5704 6.37262C12.5088 6.37262 12.4498 6.39649 12.4066 6.43886L10.8018 8.01287V8.99591L10.8016 9.00225L10.8016 5.02198Z" />
</symbol>

<symbol id="close"  viewBox="0 0 24 24">
<path d="M5.29571 17.2778C4.9018 17.6717 4.9018 18.3104 5.29571 18.7043C5.68962 19.0982 6.32828 19.0982 6.72219 18.7043L11.9998 13.4267L17.2778 18.7048C17.6717 19.0987 18.3104 19.0987 18.7043 18.7048C19.0982 18.3109 19.0982 17.6722 18.7043 17.2783L13.4262 12.0002L18.7046 6.72191C19.0985 6.328 19.0985 5.68934 18.7046 5.29543C18.3107 4.90152 17.672 4.90152 17.2781 5.29543L11.9998 10.5738L6.72191 5.29592C6.328 4.90202 5.68934 4.90202 5.29543 5.29592C4.90152 5.68983 4.90152 6.32849 5.29543 6.7224L10.5733 12.0002L5.29571 17.2778Z" />
</symbol>


<symbol  id="term" viewBox="0 0 19 20">
<path d="M9.85112 1.13179C9.62474 1.04689 9.37526 1.04689 9.14888 1.13179L2.14888 3.75679C1.75857 3.90315 1.5 4.27627 1.5 4.69312V10.0561V10.0563C1.50026 11.5419 1.91416 12.998 2.69533 14.2616C3.4765 15.5252 4.59408 16.5463 5.92286 17.2106L9.05233 18.7773C9.33395 18.9183 9.66552 18.9184 9.94721 18.7775L13.0771 17.2126C13.0772 17.2126 13.0772 17.2126 13.0772 17.2125C14.4063 16.5481 15.5241 15.5266 16.3053 14.2626C17.0864 12.9986 17.5001 11.542 17.5 10.0561C17.5 10.0561 17.5 10.056 17.5 10.056V4.69312C17.5 4.27627 17.2414 3.90315 16.8511 3.75679L9.85112 1.13179Z" stroke="#9293A3" stroke-width="2" stroke-linecap="round" stroke-linejoin="round"/>
<path d="M9.50415 6.66677L9.50415 10.0001M9.50415 13.3334L9.49582 13.3334" stroke="#9293A3" stroke-width="2" stroke-linecap="round" stroke-linejoin="round"/>
</symbol>




<symbol  id="free-spin" viewBox="0 0 17 18">
<path fill-rule="evenodd" clip-rule="evenodd" d="M8.5 17C13.1944 17 17 13.1944 17 8.5C17 3.80558 13.1944 0 8.5 0C3.80558 0 0 3.80558 0 8.5C0 13.1944 3.80558 17 8.5 17ZM8.5 5.84175V4.71157C6.43125 4.71157 4.75 6.41 4.75 8.4999C4.75 8.99869 4.84375 9.48486 5.025 9.92052C5.11875 10.1478 5.05 10.4067 4.88125 10.5772C4.5625 10.8992 4.025 10.7855 3.85625 10.3625C3.625 9.78792 3.5 9.15654 3.5 8.4999C3.5 5.70916 5.7375 3.44879 8.5 3.44879V2.31861C8.5 2.03449 8.8375 1.89558 9.03125 2.09131L10.775 3.85288C10.9 3.97916 10.9 4.17489 10.775 4.30117L9.03125 6.06274C8.8375 6.26478 8.5 6.12588 8.5 5.84175ZM11.975 7.07927C11.8812 6.85829 11.95 6.5931 12.1188 6.42263C12.4375 6.10062 12.975 6.21427 13.1438 6.6373C13.375 7.21186 13.5 7.84325 13.5 8.4999C13.5 11.2906 11.2625 13.551 8.5 13.551V14.6875C8.5 14.9653 8.1625 15.1042 7.96875 14.9085L6.225 13.1469C6.1 13.0206 6.1 12.8249 6.225 12.6986L7.96875 10.937C8.1625 10.735 8.5 10.8739 8.5 11.158V12.2882C10.5688 12.2882 12.25 10.5898 12.25 8.4999C12.25 8.0011 12.15 7.52124 11.975 7.07927Z" />
</symbol>



<symbol  id="star" viewBox="0 0 18 18">
<path d="M8.08663 2.04906C8.43899 1.25857 9.56101 1.25857 9.91337 2.04906L11.2515 5.05105C11.3968 5.37709 11.7049 5.60093 12.0599 5.6384L15.3285 5.98338C16.1892 6.07422 16.5359 7.14132 15.893 7.72071L13.4514 9.92102C13.1863 10.16 13.0686 10.5222 13.1426 10.8714L13.8246 14.0866C14.0042 14.9332 13.0964 15.5927 12.3467 15.1603L9.49962 13.5182C9.19041 13.3398 8.80959 13.3398 8.50038 13.5182L5.65327 15.1603C4.90357 15.5927 3.99584 14.9332 4.17541 14.0866L4.85736 10.8714C4.93142 10.5222 4.81374 10.16 4.54857 9.92102L2.10702 7.72071C1.4641 7.14132 1.81082 6.07422 2.67151 5.98338L5.94008 5.6384C6.29507 5.60093 6.60316 5.37709 6.74849 5.05105L8.08663 2.04906Z" />

</symbol>


<symbol id="clock" viewBox="0 0 15 14">
<path d="M7.50037 -0.00012207C6.1159 -0.00012207 4.76252 0.410421 3.61138 1.17959C2.46023 1.94876 1.56303 3.04201 1.03321 4.32109C0.503399 5.60018 0.364776 7.00764 0.634872 8.36551C0.904969 9.72337 1.57165 10.9707 2.55062 11.9496C3.52959 12.9286 4.77687 13.5953 6.13474 13.8654C7.4926 14.1355 8.90007 13.9968 10.1792 13.467C11.4582 12.9372 12.5515 12.04 13.3207 10.8889C14.0898 9.73772 14.5004 8.38435 14.5004 6.99988C14.4982 5.14401 13.7601 3.36477 12.4478 2.05247C11.1355 0.74018 9.35623 0.0020011 7.50037 -0.00012207Z" fill="#1A78FA"/>
<path d="M7.46948 2.54791V7.01091V6.45304" stroke="#0A0A0B" stroke-width="1.91271" stroke-linecap="round"/>
<path d="M7.46954 7.01086L5.23804 8.68449" stroke="#0A0A0B" stroke-width="1.91271" stroke-linecap="round"/>
</symbol>


<symbol  id="info" viewBox="0 0 21 20">
<svg width="21" height="20"  fill="none" xmlns="http://www.w3.org/2000/svg">
<path d="M10.5 13.3334V10M10.5 6.66669H10.5083M18.8333 10C18.8333 14.6024 15.1023 18.3334 10.5 18.3334C5.89759 18.3334 2.16663 14.6024 2.16663 10C2.16663 5.39765 5.89759 1.66669 10.5 1.66669C15.1023 1.66669 18.8333 5.39765 18.8333 10Z" stroke="#9293A3" stroke-width="2" stroke-linecap="round" stroke-linejoin="round"/>

</symbol>
</svg>
